<svg xmlns="http://www.w3.org/2000/svg" width="128" height="128" viewBox="0 0 24 24"><g fill-rule="evenodd"><path d="M4 5.5A2.5 2.5 0 0 0 1.5 8v6A2.5 2.5 0 0 0 4 16.5h2.5v1H5a.5.5 0 0 0 0 1h6a.5.5 0 0 0 0-1H9.5v-1H12a2.5 2.5 0 0 0 2.5-2.5V8A2.5 2.5 0 0 0 12 5.5H4Zm4.5 12h-1v-1h1v1Zm3.5-2a1.5 1.5 0 0 0 1.5-1.5V8A1.5 1.5 0 0 0 12 6.5H4A1.5 1.5 0 0 0 2.5 8v6A1.5 1.5 0 0 0 4 15.5h8ZM18 5.5A1.5 1.5 0 0 0 16.5 7v10a1.5 1.5 0 0 0 1.5 1.5h3a1.5 1.5 0 0 0 1.5-1.5V7A1.5 1.5 0 0 0 21 5.5h-3Zm3.5 3V7a.5.5 0 0 0-.5-.5h-3a.5.5 0 0 0-.5.5v1.5h4Zm-4 1h4V17a.5.5 0 0 1-.5.5h-3a.5.5 0 0 1-.5-.5V9.5Z"/></g></svg>